<svg viewBox="0 0 20 21" xmlns="http://www.w3.org/2000/svg">
<path d="M10.8442 13.9492V17.8828L10.8452 17.8837L17.4575 13.4785V13.4775L14.5034 11.5038L10.8442 13.9492ZM2.54443 13.4794L2.54248 13.4785L9.15479 17.8837L9.15576 17.8828V13.9501V13.9492L5.49756 11.5038H5.49658L2.54248 13.4775L2.54443 13.4794ZM16.0229 10.4902L18.1343 11.9023L18.1353 11.9013V9.07806H18.1343L16.0229 10.4902ZM1.86475 11.9042L1.86572 11.9052L3.97705 10.4931V10.4921L1.86572 9.08002V9.08099L1.86475 9.08197V11.9042ZM7.01416 10.4931L9.99951 12.4872H10.0005L12.9858 10.4902L10.0005 8.49603V8.49506L9.99951 8.49603L8.52881 9.47943L7.01416 10.4921V10.4931ZM2.54443 7.5058L2.54248 7.50482L5.49658 9.47943H5.49756L9.15576 7.03314V3.09955H9.15479L2.54248 7.50385L2.54443 7.5058ZM10.8442 3.09955L10.8452 3.10052H10.8472V7.03314L14.5054 9.47943H14.5063L17.4595 7.50482V7.50385L17.4585 7.50287L10.8481 3.10052V3.09955L10.8472 3.09857H10.8452V3.09955H10.8442ZM0.250488 7.164C0.253557 7.15694 0.256591 7.1496 0.260254 7.14349C0.270042 7.12392 0.279773 7.10396 0.289551 7.08685L0.313965 7.04779C0.333591 7.0159 0.353914 6.98685 0.378418 6.9599C0.390627 6.94281 0.404742 6.92772 0.419434 6.91302C0.425566 6.90812 0.431521 6.90289 0.437012 6.8974C0.442517 6.89189 0.447533 6.88567 0.453613 6.8808L0.500488 6.84174L0.539551 6.81244C0.54206 6.81118 0.544918 6.80939 0.547363 6.80756L0.554199 6.80267H0.555176L9.53369 0.824158C9.6029 0.777938 9.67854 0.742572 9.75732 0.718689C9.83612 0.694802 9.91823 0.682556 10.0015 0.682556C10.0847 0.682564 10.1668 0.69478 10.2456 0.718689C10.3243 0.742572 10.4001 0.777968 10.4692 0.824158L19.4429 6.79779C19.4453 6.79899 19.4482 6.80082 19.4507 6.80267C19.453 6.80439 19.4552 6.80633 19.4575 6.80756L19.4976 6.83685L19.5435 6.87592C19.5557 6.88569 19.5679 6.89602 19.5776 6.90814C19.5924 6.92287 19.6074 6.94029 19.6196 6.95502C19.6417 6.98446 19.6645 7.01347 19.6841 7.04291C19.6938 7.05512 19.7012 7.06974 19.7085 7.08197C19.7183 7.10158 19.728 7.11901 19.7378 7.13861C19.7452 7.15334 19.7524 7.16587 19.7573 7.1806C19.7671 7.20023 19.7724 7.2225 19.7798 7.24213H19.7788L19.7915 7.28412C19.7987 7.30835 19.8013 7.33011 19.8062 7.35443L19.814 7.39154L19.8286 7.50189V13.4853C19.8286 13.522 19.8257 13.559 19.8208 13.5956L19.814 13.6328C19.8091 13.6573 19.8067 13.682 19.7993 13.704C19.7969 13.7188 19.7915 13.7338 19.7866 13.746C19.783 13.7557 19.7795 13.766 19.7759 13.7763C19.7722 13.7867 19.7678 13.7977 19.7642 13.8076C19.7606 13.8148 19.7574 13.8222 19.7544 13.829C19.7514 13.836 19.7482 13.8425 19.7446 13.8486C19.7348 13.8682 19.7252 13.8856 19.7153 13.9052C19.7117 13.9125 19.7079 13.9193 19.7036 13.9257C19.6994 13.9321 19.6946 13.9382 19.6909 13.9443L19.6538 13.996L19.6245 14.0331L19.5835 14.079C19.5773 14.084 19.5714 14.0901 19.5659 14.0956C19.5604 14.1012 19.5544 14.1064 19.5483 14.1113C19.5338 14.1234 19.5194 14.1382 19.5024 14.1503C19.4877 14.1601 19.4747 14.1698 19.4624 14.1796C19.46 14.1809 19.458 14.1837 19.4556 14.1855C19.4531 14.1873 19.4501 14.1882 19.4478 14.1894V14.1904L10.4712 20.1689L10.3608 20.2314C10.323 20.2492 10.2841 20.2635 10.2446 20.2753C10.1653 20.299 10.0836 20.3115 10.0024 20.3115C9.96078 20.3115 9.91939 20.3077 9.87842 20.3017C9.79648 20.2896 9.71669 20.2657 9.64209 20.2304L9.53369 20.1689L0.557129 14.1904L0.550293 14.1855L0.503418 14.1503C0.488693 14.1381 0.471265 14.126 0.456543 14.1113C0.444398 14.1016 0.432126 14.0921 0.422363 14.08V14.079L0.380371 14.0331L0.351074 13.996C0.337891 13.9807 0.32843 13.9655 0.317871 13.9501C0.316614 13.9483 0.315271 13.9461 0.313965 13.9443C0.304275 13.9321 0.296897 13.9175 0.289551 13.9052C0.27733 13.8856 0.270075 13.8682 0.260254 13.8486C0.252986 13.8341 0.245609 13.8221 0.240723 13.8076L0.218262 13.746L0.212402 13.7245C0.210601 13.7179 0.208946 13.7113 0.206543 13.704L0.191895 13.6328L0.184082 13.5956C0.179217 13.559 0.177246 13.5219 0.177246 13.4853V7.50677C0.177252 7.47001 0.17918 7.43319 0.184082 7.39642L0.191895 7.35931C0.196777 7.3349 0.201661 7.31 0.206543 7.28802L0.218262 7.24701L0.22998 7.21576C0.23361 7.20548 0.237096 7.19516 0.240723 7.18549L0.250488 7.164Z" fill="currentColor" />
</svg>
